{
  "accessors": [
    {
      "bufferView": 0,
      "componentType": 5126,
      "count": 1160,
      "max": [
        85.71464538574219,
        30.434934616088867,
        0.33858075737953186
      ],
      "min": [
        -21.31450080871582,
        -27.914899826049805,
        -3.932369963877136e-06
      ],
      "type": "VEC3"
    },
    {
      "bufferView": 1,
      "componentType": 5125,
      "count": 2461,
      "type": "SCALAR"
    },
    {
      "bufferView": 2,
      "componentType": 5126,
      "count": 1160,
      "type": "VEC3"
    },
    {
      "bufferView": 3,
      "componentType": 5126,
      "count": 1160,
      "type": "VEC4"
    },
    {
      "bufferView": 4,
      "componentType": 5126,
      "count": 1160,
      "type": "VEC2"
    },
    {
      "bufferView": 5,
      "componentType": 5126,
      "count": 1400,
      "max": [
        85.97996520996094,
        30.57514762878418,
        46.50506591796875
      ],
      "min": [
        -21.81559944152832,
        -28.076799392700195,
        0.30359598994255066
      ],
      "type": "VEC3"
    },
    {
      "bufferView": 6,
      "componentType": 5125,
      "count": 2928,
      "type": "SCALAR"
    },
    {
      "bufferView": 7,
      "componentType": 5126,
      "count": 1400,
      "type": "VEC3"
    },
    {
      "bufferView": 8,
      "componentType": 5126,
      "count": 1400,
      "type": "VEC4"
    },
    {
      "bufferView": 9,
      "componentType": 5126,
      "count": 1400,
      "type": "VEC2"
    },
    {
      "bufferView": 10,
      "componentType": 5126,
      "count": 1400,
      "max": [
        85.97996520996094,
        30.57514762878418,
        46.50506591796875
      ],
      "min": [
        -21.81559944152832,
        -28.076799392700195,
        0.30359598994255066
      ],
      "type": "VEC3"
    },
    {
      "bufferView": 11,
      "componentType": 5125,
      "count": 30,
      "type": "SCALAR"
    },
    {
      "bufferView": 12,
      "componentType": 5126,
      "count": 1400,
      "type": "VEC3"
    },
    {
      "bufferView": 13,
      "componentType": 5126,
      "count": 1400,
      "type": "VEC4"
    },
    {
      "bufferView": 14,
      "componentType": 5126,
      "count": 1400,
      "type": "VEC2"
    },
    {
      "bufferView": 15,
      "componentType": 5126,
      "count": 9854,
      "max": [
        86.01935577392578,
        37.509124755859375,
        89.88289642333984
      ],
      "min": [
        -22.48069953918457,
        -28.41119956970215,
        38.94070053100586
      ],
      "type": "VEC3"
    },
    {
      "bufferView": 16,
      "componentType": 5125,
      "count": 25194,
      "type": "SCALAR"
    },
    {
      "bufferView": 17,
      "componentType": 5126,
      "count": 9854,
      "type": "VEC3"
    },
    {
      "bufferView": 18,
      "componentType": 5126,
      "count": 9854,
      "type": "VEC4"
    },
    {
      "bufferView": 19,
      "componentType": 5126,
      "count": 9854,
      "type": "VEC2"
    },
    {
      "bufferView": 20,
      "componentType": 5126,
      "count": 9854,
      "max": [
        86.01935577392578,
        37.509124755859375,
        89.88289642333984
      ],
      "min": [
        -22.48069953918457,
        -28.41119956970215,
        38.94070053100586
      ],
      "type": "VEC3"
    },
    {
      "bufferView": 21,
      "componentType": 5125,
      "count": 1608,
      "type": "SCALAR"
    },
    {
      "bufferView": 22,
      "componentType": 5126,
      "count": 9854,
      "type": "VEC3"
    },
    {
      "bufferView": 23,
      "componentType": 5126,
      "count": 9854,
      "type": "VEC4"
    },
    {
      "bufferView": 24,
      "componentType": 5126,
      "count": 9854,
      "type": "VEC2"
    },
    {
      "bufferView": 25,
      "componentType": 5126,
      "count": 4,
      "max": [
        167.02926635742188,
        167.02926635742188,
        0.0
      ],
      "min": [
        -167.0290069580078,
        -167.0290069580078,
        0.0
      ],
      "type": "VEC3"
    },
    {
      "bufferView": 26,
      "componentType": 5125,
      "count": 4,
      "type": "SCALAR"
    },
    {
      "bufferView": 27,
      "componentType": 5126,
      "count": 4,
      "type": "VEC3"
    },
    {
      "bufferView": 28,
      "componentType": 5126,
      "count": 4,
      "type": "VEC4"
    },
    {
      "bufferView": 29,
      "componentType": 5126,
      "count": 4,
      "type": "VEC2"
    }
  ],
  "asset": {
    "version": "2.0"
  },
  "bufferViews": [
    {
      "buffer": 0,
      "byteLength": 13920,
      "target": 34962
    },
    {
      "buffer": 1,
      "byteLength": 9844,
      "target": 34963
    },
    {
      "buffer": 2,
      "byteLength": 13920,
      "target": 34962
    },
    {
      "buffer": 3,
      "byteLength": 18560,
      "target": 34962
    },
    {
      "buffer": 4,
      "byteLength": 9280,
      "target": 34962
    },
    {
      "buffer": 5,
      "byteLength": 16800,
      "target": 34962
    },
    {
      "buffer": 6,
      "byteLength": 11712,
      "target": 34963
    },
    {
      "buffer": 7,
      "byteLength": 16800,
      "target": 34962
    },
    {
      "buffer": 8,
      "byteLength": 22400,
      "target": 34962
    },
    {
      "buffer": 9,
      "byteLength": 11200,
      "target": 34962
    },
    {
      "buffer": 5,
      "byteLength": 16800,
      "target": 34962
    },
    {
      "buffer": 10,
      "byteLength": 120,
      "target": 34963
    },
    {
      "buffer": 7,
      "byteLength": 16800,
      "target": 34962
    },
    {
      "buffer": 8,
      "byteLength": 22400,
      "target": 34962
    },
    {
      "buffer": 9,
      "byteLength": 11200,
      "target": 34962
    },
    {
      "buffer": 11,
      "byteLength": 118248,
      "target": 34962
    },
    {
      "buffer": 12,
      "byteLength": 100776,
      "target": 34963
    },
    {
      "buffer": 13,
      "byteLength": 118248,
      "target": 34962
    },
    {
      "buffer": 14,
      "byteLength": 157664,
      "target": 34962
    },
    {
      "buffer": 15,
      "byteLength": 78832,
      "target": 34962
    },
    {
      "buffer": 11,
      "byteLength": 118248,
      "target": 34962
    },
    {
      "buffer": 16,
      "byteLength": 6432,
      "target": 34963
    },
    {
      "buffer": 13,
      "byteLength": 118248,
      "target": 34962
    },
    {
      "buffer": 14,
      "byteLength": 157664,
      "target": 34962
    },
    {
      "buffer": 15,
      "byteLength": 78832,
      "target": 34962
    },
    {
      "buffer": 17,
      "byteLength": 48,
      "target": 34962
    },
    {
      "buffer": 18,
      "byteLength": 16,
      "target": 34963
    },
    {
      "buffer": 19,
      "byteLength": 48,
      "target": 34962
    },
    {
      "buffer": 20,
      "byteLength": 64,
      "target": 34962
    },
    {
      "buffer": 21,
      "byteLength": 32,
      "target": 34962
    }
  ],
  "buffers": [
    {
      "byteLength": 13920,
      "uri": "data:application/octet-stream;base64,"
    },
    {
      "byteLength": 9844,
      "uri": "data:application/octet-stream;base64,"
    },
    {
      "byteLength": 13920,
      "uri": "data:application/octet-stream;base64,"
    },
    {
      "byteLength": 18560,
      "uri": "data:application/octet-stream;base64,"
    },
    {
      "byteLength": 9280,
      "uri": "data:application/octet-stream;base64,"
    },
    {
      "byteLength": 16800,
      "uri": "data:application/octet-stream;base64,"
    },
    {
      "byteLength": 11712,
      "uri": "data:application/octet-stream;base64,"
    },
    {
      "byteLength": 16800,
      "uri": "data:application/octet-stream;base64,"
    },
    {
      "byteLength": 22400,
      "uri": "data:application/octet-stream;base64,"
    },
    {
      "byteLength": 11200,
      "uri": "data:application/octet-stream;base64,"
    },
    {
      "byteLength": 120,
      "uri": "data:application/octet-stream;base64,"
    },
    {
      "byteLength": 118248,
      "uri": "data:application/octet-stream;base64,"
    },
    {
      "byteLength": 100776,
      "uri": "data:application/octet-stream;base64,"
    },
    {
      "byteLength": 118248,
      "uri": "data:application/octet-stream;base64,"
    },
    {
      "byteLength": 157664,
      "uri": "data:application/octet-stream;base64,"
    },
    {
      "byteLength": 78832,
      "uri": "data:application/octet-stream;base64,"
    },
    {
      "byteLength": 6432,
      "uri": "data:application/octet-stream;base64,"
    },
    {
      "byteLength": 48,
      "uri": "data:application/octet-stream;base64,"
    },
    {
      "byteLength": 16,
      "uri": "data:application/octet-stream;base64,"
    },
    {
      "byteLength": 48,
      "uri": "data:application/octet-stream;base64,"
    },
    {
      "byteLength": 64,
      "uri": "data:application/octet-stream;base64,"
    },
    {
      "byteLength": 32,
      "uri": "data:application/octet-stream;base64,"
    }
  ],
  "extensionsUsed": [
    "KHR_materials_emissive_strength",
    "KHR_materials_specular",
    "KHR_materials_ior"
  ],
  "images": [
    {
      "uri": "textures/diffuse.png"
    },
    {
      "uri": "textures/shadow.png"
    }
  ],
  "materials": [
    {
      "doubleSided": true,
      "extensions": {
        "KHR_materials_emissive_strength": {
          "emissiveStrength": 0.0
        }
      },
      "name": "RUBBER",
      "pbrMetallicRoughness": {
        "baseColorTexture": {
          "index": 0
        },
        "metallicFactor": 0.0,
        "roughnessFactor": 0.10702864080667496
      }
    },
    {
      "doubleSided": true,
      "extensions": {
        "KHR_materials_emissive_strength": {
          "emissiveStrength": 0.0
        },
        "KHR_materials_specular": {
          "specularFactor": 1.0
        }
      },
      "name": "STEEL_BLACK",
      "pbrMetallicRoughness": {
        "baseColorTexture": {
          "index": 0
        },
        "roughnessFactor": 0.6968368887901306
      }
    },
    {
      "doubleSided": true,
      "extensions": {
        "KHR_materials_emissive_strength": {
          "emissiveStrength": 0.0
        },
        "KHR_materials_specular": {
          "specularFactor": 0.08708079159259796
        }
      },
      "name": "FABRIC",
      "pbrMetallicRoughness": {
        "baseColorTexture": {
          "index": 0
        },
        "metallicFactor": 0.6724466681480408,
        "roughnessFactor": 0.6419588327407837
      }
    },
    {
      "alphaMode": "BLEND",
      "doubleSided": true,
      "extensions": {
        "KHR_materials_emissive_strength": {
          "emissiveStrength": 0.0
        },
        "KHR_materials_ior": {
          "ior": 1.0499999523162842
        }
      },
      "name": "FLOOR",
      "pbrMetallicRoughness": {
        "baseColorFactor": [
          1.0,
          1.0,
          1.0,
          0.47122713923454285
        ],
        "baseColorTexture": {
          "index": 1
        },
        "metallicFactor": 0.0,
        "roughnessFactor": 0.6
      }
    }
  ],
  "meshes": [
    {
      "name": "2 X Braga Dining Chairs_RUBBER_0",
      "primitives": [
        {
          "attributes": {
            "NORMAL": 2,
            "POSITION": 0,
            "TANGENT": 3,
            "TEXCOORD_0": 4
          },
          "indices": 1,
          "material": 0,
          "mode": 5
        }
      ]
    },
    {
      "name": "2 X Braga Dining Chairs_STEEL_BLACK_0",
      "primitives": [
        {
          "attributes": {
            "NORMAL": 7,
            "POSITION": 5,
            "TANGENT": 8,
            "TEXCOORD_0": 9
          },
          "indices": 6,
          "material": 1,
          "mode": 5
        },
        {
          "attributes": {
            "NORMAL": 12,
            "POSITION": 10,
            "TANGENT": 13,
            "TEXCOORD_0": 14
          },
          "indices": 11,
          "material": 1,
          "mode": 4
        }
      ]
    },
    {
      "name": "2 X Braga Dining Chairs_FABRIC_0",
      "primitives": [
        {
          "attributes": {
            "NORMAL": 17,
            "POSITION": 15,
            "TANGENT": 18,
            "TEXCOORD_0": 19
          },
          "indices": 16,
          "material": 2,
          "mode": 5
        },
        {
          "attributes": {
            "NORMAL": 22,
            "POSITION": 20,
            "TANGENT": 23,
            "TEXCOORD_0": 24
          },
          "indices": 21,
          "material": 2,
          "mode": 4
        }
      ]
    },
    {
      "name": "Plane001_FLOOR_0",
      "primitives": [
        {
          "attributes": {
            "NORMAL": 27,
            "POSITION": 25,
            "TANGENT": 28,
            "TEXCOORD_0": 29
          },
          "indices": 26,
          "material": 3,
          "mode": 5
        }
      ]
    }
  ],
  "nodes": [
    {
      "mesh": 0,
      "name": "2 X Braga Dining Chairs_RUBBER_0"
    },
    {
      "mesh": 1,
      "name": "2 X Braga Dining Chairs_STEEL_BLACK_0"
    },
    {
      "mesh": 2,
      "name": "2 X Braga Dining Chairs_FABRIC_0"
    },
    {
      "children": [
        0,
        1,
        2
      ],
      "name": "2 X Braga Dining Chairs",
      "rotation": [
        -0.7071067811865475,
        0.0,
        0.0,
        0.7071067811865476
      ],
      "scale": [
        1.0,
        1.0,
        1.0
      ],
      "translation": [
        -0.002867399947717786,
        7.629390165675431e-05,
        0.33277401328086853
      ]
    },
    {
      "mesh": 3,
      "name": "Plane001_FLOOR_0"
    },
    {
      "children": [
        4
      ],
      "name": "Plane001",
      "rotation": [
        -0.7071067811865475,
        0.0,
        0.0,
        0.7071067811865476
      ],
      "scale": [
        1.0,
        1.0,
        1.0
      ],
      "translation": [
        0.0,
        0.0,
        0.0
      ]
    },
    {
      "children": [
        3,
        5
      ],
      "name": "RootNode"
    },
    {
      "children": [
        6
      ],
      "name": "2 X Braga Dining Chairs",
      "rotation": [
        1.1102230246251565e-16,
        0.0,
        0.0,
        1.0
      ],
      "scale": [
        1.0,
        1.0,
        1.0
      ],
      "translation": [
        0.0,
        0.0,
        0.0
      ]
    }
  ],
  "samplers": [
    {
      "magFilter": 9729,
      "minFilter": 9987,
      "wrapS": 10497,
      "wrapT": 10497
    },
    {
      "magFilter": 9729,
      "minFilter": 9987,
      "wrapS": 10497,
      "wrapT": 10497
    }
  ],
  "scene": 0,
  "scenes": [
    {
      "nodes": [
        7
      ]
    }
  ],
  "textures": [
    {
      "sampler": 0,
      "source": 0
    },
    {
      "sampler": 1,
      "source": 1
    }
  ]
}
